<?xml version="1.0" encoding="UTF-8"?>
<svg id="Calque_1" xmlns="http://www.w3.org/2000/svg" viewBox="0 0 145.05 145.05">
  <defs>
    <style>
      .cls-1 {
        stroke-width: 3px;
      }

      .cls-1, .cls-2, .cls-3, .cls-4, .cls-5 {
        stroke: #481b1a;
        stroke-miterlimit: 10;
      }

      .cls-1, .cls-3, .cls-4, .cls-5 {
        fill: none;
      }

      .cls-2 {
        fill: #481b1a;
      }

      .cls-3 {
        stroke-width: 2px;
      }

      .cls-4 {
        stroke-width: .75px;
      }
    </style>
  </defs>
  <path class="cls-3" d="M85.38,71.87c-1.45-3.63-3.35-4.9-4.84-5.38-.77-.24-2.57-.24-6.21-.29-3.12-.01-3.77.07-5.06-.24-.73-.16-2.87-.65-4.37-2.01-3.15-2.84-1.62-7.78-1.51-8.16"/>
  <path class="cls-3" d="M79.42,109.09c-.6,4.29,1.53,8.13,1.39,10.59-.13,1.99-.49,4.52.52,7.65.19.6.69,2.05,1.76,3.51,2.08,2.78,5.03,3.77,7,4.43,10.33,3.54,4.73,1.59,10.87,3.25"/>
  <path class="cls-3" d="M79.42,109.09c.83-6.92,4.53-21.04,5.3-27.95.66-5.83,1.73-15.31,4.11-25.64,1.39-6.03,7.86-22.52,8.9-25.72"/>
  <path class="cls-3" d="M88.99,4.68c-3.45,4.86-6.55,9.96-7.12,10.94-1.4,2.48-1.12,2.21-4.4,8.37-1.39,2.59-2.65,4.99-4.41,8.1-2.38,4.24-9.26,22.56-10.75,25.29"/>
  <path class="cls-3" d="M124.39,119.86c-8.61-.63-17.37-.97-24-2.59-5.22-1.26-12.6-3.6-20.96-8.18"/>
  <path class="cls-5" d="M117.98,128.2c-10.23-1.61-11.11-2.77-16.66-2.62-2.69.07-4.34.4-6.98-.33-2.8-.77-3.96-1.99-7.64-3.58-2.44-1.06-4.54-1.68-5.89-2.02"/>
  <circle class="cls-1" cx="72.52" cy="72.52" r="71.02"/>
  <g>
    <polygon class="cls-4" points="46.44 100.88 45.85 101.25 46.29 100.73 46.44 100.88"/>
    <g>
      <g>
        <path class="cls-5" d="M62.58,56.64c-1.61,4.82-5.83,14.64-8.6,18.63-9.89,14.29-21,19.19-20.4,22.32.03.14.29.44.79,1.06,2.32,2.8,3.5,4.2,3.8,4.56,3.48,4.11,4.14,6.54,5.83,6.02.33-.1.57-.27.93-.56,3.63-2.95,6.18-7.9,9.2-12.23,1.78-2.55,1.36-1.51,3.84-4.9,2.35-3.21,4.07-6.15,7.51-12.03.37-.65.89-1.53.83-1.62-.14-.19-3.05,3.78-3.71,4.67-2.64,3.57-7.24,9.15-15.82,17.89"/>
        <path class="cls-5" d="M33.28,90.37c.46.96,1.91,3.55,2.35,4.52"/>
        <path class="cls-5" d="M33.28,90.37c-.72-1.59,16.03-11.61,20.71-15.09"/>
        <path class="cls-5" d="M44.01,109.23c2.52,1.71,4.99,4.86,6.77,5.45,2.52.83,4.66,1.1,5.79,1.19,2.9.26,2.82-.26,4.66.11,1.88.37,2.12.95,6.13,2.48,2.34.89,3.41,1.15,4.19.26.67-.79.79-2.09.86-2.72.37-3.81,1.16-7.38,2.75-14.52.97-4.36,2.25-7.65,3.31-10.38,1.75-4.5.92-5.82,2.14-9.32.75-2.12,6.74-16.51,7.18-22"/>
        <path class="cls-5" d="M62.92,100.53c.07,3.01-.5,4.93-1.05,6.15-.59,1.3-1.35,2.22-2.12,4.4-.39,1.08-.69,3.83-.82,4.43"/>
        <path class="cls-5" d="M68.63,94.1c-1.92,3.31-2.82,6.24-3.27,8.11-.37,1.56-.54,2.87-.86,5.26-.42,3.23-.96,7.04-1.08,8.86"/>
      </g>
      <polygon class="cls-4" points="68.84 93.61 69.33 93.07 69.01 93.71 68.84 93.61"/>
      <polygon class="cls-4" points="62.82 99.99 62.88 99.42 62.98 99.97 62.82 99.99"/>
    </g>
  </g>
  <polyline class="cls-2" points="97.02 29.69 99.1 25.85 98.35 30.1"/>
  <polyline class="cls-2" points="63.01 57.55 59.38 64.87 61.85 56.77"/>
</svg>