<?xml version="1.0" encoding="UTF-8"?>
<svg id="Calque_1" xmlns="http://www.w3.org/2000/svg" viewBox="0 0 146.3 146.3">
  <defs>
    <style>
      .cls-1 {
        stroke-width: 3px;
      }

      .cls-1, .cls-2, .cls-3, .cls-4 {
        stroke: #481b1a;
        stroke-miterlimit: 10;
      }

      .cls-1, .cls-3, .cls-4 {
        fill: none;
      }

      .cls-2 {
        fill: #481b1a;
      }

      .cls-3 {
        stroke-width: 2px;
      }
    </style>
  </defs>
  <path class="cls-3" d="M77.17,107.2c1.42,4.58,1.55,8.2,1.4,10.69-.13,2.01-.49,4.55.52,7.72.19.61.69,2.07,1.78,3.54,2.1,2.81,5.08,3.8,7.06,4.47,10.43,3.57,7.52,3.4,13.72,5.09"/>
  <path class="cls-3" d="M87.84,2.54c-4.31,5.8-2.2,2.31-5.34,6.75-3.48,4.9-5.76,8.88-6.32,9.88-1.42,2.5-1.13,2.23-4.44,8.44-1.4,2.62-2.68,5.03-4.45,8.17-2.4,4.28-2.7,4.55-4.19,7.32-2.39,4.41-2.39,5.06-4.15,8.43-2.17,4.12-2.78,4.27-7.63,11.87-3.35,5.22-5.02,7.82-6.04,10.15-1.89,4.37-3.5,8.04-3.17,12.83.27,4.19,1.76,5.22,1.13,9.08-.49,2.99-1.62,3.92-1.45,6.7.23,3.17,1.95,5.44,2.4,6,1.74,2.21,3.25,2.37,9.85,5.21,7.55,3.24,8.29,4.21,10.64,3.82,2.44-.42,4.28-1.88,7.07-4.09,1.39-1.1,3.08-2.47,4.55-4.57,2.43-3.5,2.83-7.1,3.05-8.68.84-6.98,2.41-13.87,3.2-20.84.67-5.89,1.75-15.44,4.15-25.87,1.4-6.09,7.92-22.72,8.98-25.94"/>
  <path class="cls-3" d="M85.44,58.92c-1.46-3.66-3.38-4.95-4.89-5.42-.78-.25-2.59-.25-6.26-.29-3.15-.01-3.8.07-5.1-.25-.74-.16-2.89-.65-4.41-2.02-3.18-2.86-1.63-7.85-1.52-8.23"/>
  <path class="cls-4" d="M77.52,108.16c-7.78,1.4-13.01.07-15.49-.78-2.62-.9-5.7-2.49-7.56-3.44-2.63-1.33-4.02-2.07-5.63-3.33-2.52-1.97-4.25-4.18-5.44-6.13"/>
  <path class="cls-3" d="M129.36,119.13c-7.92.29-5.52-.68-10.37-1.04-8.69-.64-13.98-1.03-20.66-2.66-5.26-1.27-12.71-3.63-21.14-8.26"/>
  <path class="cls-4" d="M119.71,127.1c-10.32-1.62-14.87-3.43-20.46-3.28-2.72.07-4.38.4-7.04-.33-2.82-.78-3.99-2.01-7.71-3.62-2.46-1.07-4.58-1.69-5.94-2.04"/>
  <circle class="cls-1" cx="73.15" cy="73.15" r="71.65"/>
  <polygon class="cls-2" points="95.17 26.44 96.81 22.37 96.39 26.75 95.17 26.44"/>
</svg>