<?xml version="1.0" encoding="UTF-8"?>
<svg id="Calque_1" xmlns="http://www.w3.org/2000/svg" viewBox="0 0 135.68 135.68">
  <defs>
    <style>
      .cls-1 {
        stroke-width: 3px;
      }

      .cls-1, .cls-2, .cls-3, .cls-4 {
        stroke: #481b1a;
        stroke-miterlimit: 10;
      }

      .cls-1, .cls-3, .cls-4 {
        fill: none;
      }

      .cls-2 {
        fill: #481b1a;
      }

      .cls-3 {
        stroke-width: 2px;
      }
    </style>
  </defs>
  <path class="cls-3" d="M78.94,76.5c.62-5.45,1.62-14.3,3.84-23.95,1.3-5.64,7.34-21.03,8.31-24.02"/>
  <path class="cls-3" d="M64.84,36.48c-2.22,3.96-2.5,4.22-3.88,6.77-2.21,4.08-3.44,6.77-3.74,8.26"/>
  <path class="cls-3" d="M81.66,57.91c-1.35-3.39-3.13-4.58-4.53-5.02-.72-.23-2.4-.23-5.8-.27-2.92-.01-3.52.07-4.73-.23-.68-.15-2.68-.6-4.08-1.87-2.95-2.65-1.51-7.27-1.41-7.62"/>
  <path class="cls-4" d="M69.26,96.1c-7.2,1.3-14.43-1.25-16.72-2.04-2.42-.83-5.28-2.3-7-3.19"/>
  <polyline class="cls-3" points="57.72 49.95 42.56 100.84 65.26 106.71 80.28 66.86"/>
  <path class="cls-3" d="M74.28,102.01c-.56,4,1.43,7.59,1.3,9.89-.12,1.86-.46,4.22.48,7.15.17.56.64,1.91,1.65,3.28,1.94,2.6,13.63,5.61,15.46,6.23"/>
  <path class="cls-3" d="M74.28,102.01c.78-6.47,4.23-19.65,4.95-26.11.62-5.45,1.62-14.3,3.84-23.95,1.3-5.64,7.34-21.03,8.31-24.02"/>
  <path class="cls-3" d="M84.78,4.98c-3.23,4.54-6.33,8.26-6.85,9.18-1.31,2.32-5.88,9.01-8.94,14.77-1.3,2.42-2.48,4.66-4.12,7.56"/>
  <path class="cls-3" d="M115.97,112.34c-8.05-.59-15.93-1.2-22.1-2.7-4.87-1.18-11.77-3.36-19.57-7.64"/>
  <path class="cls-4" d="M110.28,119.84c-9.56-1.5-10.38-2.58-15.56-2.45-2.52.07-4.06.37-6.52-.31-2.61-.72-3.7-1.86-7.14-3.35-2.28-.99-4.24-1.57-5.5-1.89"/>
  <circle class="cls-1" cx="67.84" cy="67.84" r="66.34"/>
  <polyline class="cls-2" points="90.71 27.84 92.66 24.25 91.97 28.22"/>
</svg>