<?xml version="1.0" encoding="UTF-8"?>
<svg id="Calque_1" xmlns="http://www.w3.org/2000/svg" viewBox="0 0 107.71 115.64">
  <defs>
    <style>
      .cls-1 {
        stroke-width: 2px;
      }

      .cls-1, .cls-2 {
        fill: none;
        stroke: #000000;
        stroke-miterlimit: 10;
      }
    </style>
  </defs>
  <path class="cls-1" d="M85.07,92.87c-.84,2.81-.89,5.03-.79,6.55.09,1.23.33,2.78-.27,4.73-.11.37-.41,1.27-1.07,2.18-1.27,1.73-3.08,2.37-4.29,2.78-6.36,2.26-4.58,2.13-8.36,3.21-5.61,1.6-10.05,2.04-11.06,2.13-2.88.26-5.42.22-10.5.11-1.84-.04-4.4-.1-7.78-.34-3.95-.28-3.4-.42-8.44-.86-4.06-.35-5.38-.35-7.77-1.02-3.32-.93-4.51-1.97-4.86-2.31-1.85-1.74-2.39-3.89-2.61-4.8-.34-1.41-.24-2.24-.05-5.25.32-5.43.09-4.64.32-7.1.13-1.38.25-2.07,1.36-8.43.9-5.04,1.34-7.58,1.53-8.6.64-3.28.63-2.88,1.88-8.93,1-4.83,1.21-6.03,1.88-8.93.59-2.52,2.96-12.68,3.32-14"/>
  <path class="cls-1" d="M17.73,91.39c-.61.93-1.91,2.58-3.93,2.96-.55.11-1,.28-4.05-.59-3.94-1.14-4.02-.69-5.21-1.47-.46-.3-2.13-1.42-2.8-3.45-.43-1.31-.2-2.2-.09-3.73.21-2.93-.32-4.59-.54-6.45-.48-4.26.78-8.93,2.17-14.01.66-2.45,2.43-8.47,6.09-15.78,3.16-6.3,6.35-10.8,8.07-13.21,5.06-7.07,5.7-6.13,8.36-10.83.97-1.73,2.89-5.4,6.09-8.17,1.18-1.03,2.41-1.98,2.41-1.98,3.62-2.83,4.04-2.5,4.65-3.46,1.87-2.9-1.37-6.78.34-8.29.51-.46.92-.22,3.56-.26,2.4-.04,4.17-.27,6.27-.54,4.38-.56,6.29-.88,6.29-.88,1.68-.28,2.54-.45,3.39.08,1.28.8,1.54,2.64,1.62,3.25.3,2.14-.64,3.01.08,4.24.33.56.64.57,1.84,1.39,1.46,1.01,2.38,1.98,3.32,2.95,1.31,1.35,1.32,1.77,2.97,3.96,1.58,2.09,1.86,2.11,3.8,4.48,1.77,2.17,1.63,2.29,3.95,5.34,2.67,3.52,2.82,3.33,4.78,6.03,2.16,2.98,3.58,5.4,3.94,6.01.88,1.53.7,1.36,2.77,5.14.88,1.59,1.67,3.07,2.78,4.97,1.5,2.6,1.68,2.77,2.61,4.45,1.49,2.68,1.5,3.09,2.6,5.13,1.35,2.51,1.73,2.59,4.75,7.22,2.09,3.17,3.12,4.76,3.77,6.17,1.19,2.66,2.2,4.9,2.03,7.83-.14,2.56-1.05,3.2-.63,5.57.32,1.83,1.02,2.39.93,4.09-.12,1.94-1.16,3.34-1.43,3.69-1.05,1.37-1.97,1.47-5.99,3.25-4.6,2.03-5.04,2.63-6.49,2.4-1.5-.24-2.63-1.12-4.36-2.46-.86-.67-1.9-1.49-2.82-2.77-1.51-2.12-1.79-4.32-1.92-5.29-.56-4.27-1.57-8.47-2.1-12.74-.44-3.6-1.17-9.44-2.71-15.81-.9-3.72-5-13.86-5.67-15.82"/>
  <path class="cls-2" d="M35.21,14.02c1.28,1.33,3.51,3.24,6.76,4.26,2.61.83,4.83.75,6.3.7,2.15-.09,3.61-.45,6.05-1.05,2.07-.51,3.33-.96,4.77-1.93,2.05-1.38,3.21-3.14,3.81-4.26"/>
  <path class="cls-2" d="M29.68,17.63c1.38,1.29,3.41,2.98,6.1,4.58,2,1.18,3.92,2.32,6.64,3.02,2.89.73,5.18.53,9.74.09,3.13-.29,5.43-.51,8.31-1.57,1.83-.66,3.43-1.49,4.83-2.21,1.96-1.01,3.54-1.95,4.67-2.67"/>
  <path class="cls-1" d="M27.52,21.88c1.43,2.01,3.86,4.74,7.63,6.67,2.73,1.4,5.15,1.86,6.55,2.11,2.17.39,4.56.3,9.35.14,5.57-.19,7.41-.54,8.3-.73,2.76-.57,4.71-1.35,5.16-1.52.63-.24,3.03-1.22,6.22-3.36.76-.51,1.75-1.22,2.86-2.12"/>
  <path class="cls-1" d="M6.29,55.68c2.14,1.52,2.63,2.8,2.68,3.7.05.93-.4,1.5-.11,2.65.06.25.43,1.76,1.48,2.12.84.28,1.23-.46,3.57-1.45,1.87-.77,3.13-.94,3.68-1,.89-.08,1.43-.13,1.97.04,2.28.72,2.74,4.76,2.78,5.2"/>
  <path class="cls-1" d="M79.68,63.37c.87-2.25,2.04-3.05,2.95-3.35.47-.16,1.58-.17,3.83-.22,1.93-.03,2.33.02,3.13-.18.45-.11,1.76-.41,2.68-1.27,1.93-1.77.95-4.81.87-5.05"/>
  <path class="cls-2" d="M84.86,93.46c4.77.81,7.96-.04,9.48-.58,1.59-.57,3.47-1.56,4.61-2.15,1.6-.83,2.45-1.29,3.42-2.07,1.53-1.22,2.58-2.59,3.28-3.79"/>
  <path class="cls-2" d="M1.97,83.52c.94.97,2.54,2.38,4.89,3.31,1.44.58,2.61.75,4.37.99,1.7.23,4.09.46,7.03.36"/>
  <path class="cls-1" d="M17.41,95.79c1.67.43,4.22,1.12,7.34,2.1,3.62,1.14,4.27,1.5,6.13,1.82,2.9.5,4.06.14,8.28.09,4.19-.04,4.24.33,8.87.44,4.85.12,8.54-.17,11.5-.43,5.31-.45,8.56-.72,12.63-1.76,3.22-.81,7.76-2.3,12.89-5.19"/>
  <path class="cls-2" d="M17.23,100.01c2.23,1.98,4.38,2.94,5.72,3.41,2.41.86,4.47.96,6.57,1.07,2.81.14,3.27-.19,5.84-.13,3.28.07,3.83.64,7.84,1.19.83.1,4.98.66,10.13.38,2.99-.16,5.2-.53,8.06-1.01,6.31-1.06,6.84-1.79,10.27-1.73,1.67.03,2.69.22,4.31-.25,1.72-.5,2.43-1.26,4.69-2.26,1.5-.67,2.79-1.06,3.62-1.28"/>
  <path class="cls-2" d="M42.89,3.44c.5,3.04.94,8.4-1.81,12.55-.31.45-.62.88-.95,1.28"/>
  <path class="cls-2" d="M45.59,3.17c.22,3.69,1.29,8.42-1.11,15.22-.16.46.12.04-.15.44"/>
  <path class="cls-2" d="M49.03,2.57c-.75,3.87-1.3,9.67-.16,14.8.15.65.31,1.28.49,1.9"/>
  <path class="cls-2" d="M51,2.09c.91,3.09-.16,9.91.77,15.08.09.54.23,1.06.37,1.57"/>
  <path class="cls-2" d="M54.06,1.86c.65,4.12.97,10.67.98,15.44,0,.72-.45.25-.45.96"/>
  <path class="cls-2" d="M57.08,1.27c-.33,4.3.03,8.97,1.64,13.71.12.34.24.68.37,1.02"/>
</svg>