<?xml version="1.0" standalone="no"?>
<!DOCTYPE svg PUBLIC "-//W3C//DTD SVG 20010904//EN"
 "http://www.w3.org/TR/2001/REC-SVG-20010904/DTD/svg10.dtd">
<svg version="1.0" xmlns="http://www.w3.org/2000/svg"
 width="343.000000pt" height="132.000000pt" viewBox="0 0 343.000000 132.000000"
 preserveAspectRatio="xMidYMid meet">

<g transform="translate(0.000000,132.000000) scale(0.100000,-0.100000)"
fill="#000000" stroke="none">
<path d="M456 1308 c-3 -7 -4 -20 -4 -28 1 -8 -9 -38 -21 -66 l-22 -50 -62 0
c-81 0 -131 -18 -185 -67 -83 -77 -112 -183 -77 -287 l17 -52 -51 -45 c-29
-25 -49 -48 -46 -51 3 -3 27 16 54 42 l49 48 36 -38 c19 -22 36 -43 36 -47 0
-4 -11 -30 -25 -57 -14 -28 -21 -50 -16 -50 5 0 19 24 31 54 l22 53 49 -18
c133 -51 285 12 342 141 21 47 27 121 15 178 -4 17 -4 32 0 32 6 -1 64 -72 84
-106 5 -7 -10 -47 -32 -92 -44 -87 -95 -141 -163 -171 -23 -11 -53 -24 -67
-30 -23 -10 -22 -10 10 -5 91 16 176 90 230 199 19 39 36 72 38 74 1 3 15 -7
29 -22 l27 -27 -27 -56 c-54 -109 -165 -201 -282 -231 l-50 -13 42 4 c104 10
233 106 292 216 18 33 36 60 40 60 4 0 18 -11 31 -25 l24 -26 -24 -45 c-35
-65 -138 -160 -207 -191 -32 -15 -89 -35 -128 -44 -38 -9 -58 -17 -44 -18 38
-1 156 36 209 67 65 38 138 109 172 170 17 29 33 51 37 49 3 -2 29 -14 57 -28
l51 -24 10 -80 c6 -44 14 -88 18 -98 5 -11 3 -17 -7 -17 -22 0 -64 -51 -78
-93 -16 -52 -37 -58 -150 -41 -75 11 -96 11 -102 1 -13 -18 1 -117 22 -158 22
-43 52 -56 142 -62 92 -6 150 -36 178 -90 18 -36 20 -38 15 -12 -14 67 -98
115 -202 115 -100 0 -143 47 -143 155 0 49 2 56 18 51 40 -12 165 -27 186 -22
22 5 28 14 62 90 11 25 28 43 46 50 30 11 33 21 19 58 -4 13 -12 53 -15 91 -7
57 -5 67 8 67 8 0 23 14 32 32 20 38 15 106 -11 162 -24 49 -101 127 -151 151
-50 23 -135 22 -208 -4 -31 -11 -56 -16 -56 -12 0 4 -16 26 -34 48 l-35 40 37
36 c20 19 46 37 57 39 25 4 27 41 3 46 -11 2 -20 -5 -24 -20 -3 -13 -24 -38
-45 -57 l-40 -34 -37 19 c-20 10 -38 19 -40 20 -9 4 43 102 61 116 18 14 19
19 8 32 -16 19 -30 21 -35 4z m-170 -216 c0 -61 24 -117 92 -220 27 -41 32
-56 23 -65 -8 -8 -14 -8 -19 -2 -4 6 -27 40 -52 75 -49 72 -89 161 -90 200 0
25 24 70 38 70 4 0 7 -26 8 -58z m70 3 c0 -44 9 -73 46 -146 37 -74 42 -93 32
-107 -10 -14 -18 -7 -59 57 -87 135 -109 251 -47 251 26 0 27 -2 28 -55z m58
49 c11 -4 13 -14 10 -33 -5 -23 18 -106 50 -181 4 -9 0 -24 -7 -34 -13 -18
-16 -16 -42 28 -37 63 -67 163 -60 198 7 28 19 33 49 22z m-179 -24 c-3 -5
-11 -10 -16 -10 -6 0 -7 5 -4 10 3 6 11 10 16 10 6 0 7 -4 4 -10z m229 4 c10
-4 16 -18 16 -35 0 -16 7 -46 15 -65 14 -34 11 -84 -5 -84 -13 0 -50 111 -50
151 0 42 0 42 24 33z m-236 -41 c-3 -13 -12 -17 -32 -16 -16 1 -31 4 -33 7
-11 11 10 26 38 26 24 0 30 -4 27 -17z m305 -44 c-9 -32 -20 -31 -32 3 -18 52
-14 65 13 39 15 -14 22 -29 19 -42z m-299 1 c13 -13 -39 -23 -80 -16 -30 6
-34 9 -23 22 9 11 23 13 53 9 23 -4 45 -11 50 -15z m332 -25 c19 -76 -102
-257 -209 -311 -55 -29 -141 -43 -151 -25 -4 7 0 11 12 11 109 0 252 138 309
300 20 56 30 62 39 25z m245 -58 c69 -74 123 -114 182 -131 10 -3 17 -15 17
-31 0 -76 -158 24 -281 178 -45 56 -48 67 -16 67 15 0 46 -27 98 -83z m40 19
c33 -36 76 -71 98 -79 38 -16 58 -41 41 -52 -27 -16 -149 80 -209 163 -19 27
-20 32 -6 32 8 0 43 -29 76 -64z m-138 -3 c90 -117 210 -213 267 -213 23 0 28
-28 8 -48 -45 -45 -200 65 -333 238 -46 60 -46 60 -23 69 35 14 34 15 81 -46z
m176 17 c76 -60 95 -113 21 -58 -35 25 -95 98 -81 98 5 0 32 -18 60 -40z
m-641 8 c4 -21 -47 -38 -109 -38 -27 0 -49 2 -49 4 0 3 4 15 9 28 8 21 14 23
77 22 54 -1 70 -4 72 -16z m21 -47 c9 -16 3 -22 -37 -44 -26 -14 -71 -29 -100
-33 l-53 -7 3 39 3 39 72 6 c40 3 76 8 79 12 12 12 23 8 33 -12z m302 -87
c-31 -70 -86 -139 -138 -173 -49 -32 -51 -41 -5 -17 36 19 103 91 136 146 25
40 27 41 21 15 -10 -48 -57 -117 -102 -149 -37 -26 -51 -29 -135 -32 -90 -3
-92 -3 -51 10 110 36 193 113 252 236 34 71 36 73 39 43 2 -18 -6 -53 -17 -79z
m-271 41 c10 -12 8 -18 -11 -35 -33 -27 -104 -50 -156 -50 -35 0 -43 3 -43 19
0 15 10 20 48 25 26 3 68 17 93 30 55 29 54 29 69 11z m34 -54 c17 -18 16 -20
-16 -44 -63 -48 -188 -64 -208 -28 -9 17 -5 20 40 26 28 4 74 19 103 35 65 34
61 34 81 11z m16 -92 c-34 -29 -113 -59 -155 -59 -12 0 -30 9 -39 19 -17 19
-17 20 21 26 74 13 110 25 144 49 30 20 36 21 49 9 13 -13 11 -18 -20 -44z"/>
<path d="M1768 887 c-44 -12 -47 -18 -15 -32 21 -10 22 -14 25 -183 l2 -172
-25 -10 c-42 -16 -20 -29 50 -29 69 0 92 13 51 29 -25 9 -26 13 -26 92 0 89 3
99 37 117 67 35 93 2 93 -116 0 -82 -2 -91 -20 -96 -11 -3 -20 -10 -20 -16 0
-14 127 -15 135 0 4 6 -2 13 -13 16 -18 4 -21 15 -24 103 -3 88 -6 101 -27
124 -30 32 -82 35 -128 6 l-33 -20 0 100 c0 109 3 105 -62 87z"/>
<path d="M2418 887 c-44 -12 -47 -18 -15 -32 21 -10 22 -14 25 -183 l2 -172
-25 -10 c-42 -16 -20 -29 50 -29 69 0 92 13 51 29 l-26 10 0 200 c0 154 -3
200 -12 199 -7 -1 -30 -6 -50 -12z"/>
<path d="M2603 873 c-16 -6 -17 -35 -1 -51 18 -18 46 -14 58 9 19 34 -15 59
-57 42z"/>
<path d="M1380 785 c0 -41 4 -55 14 -55 8 0 17 14 21 30 9 41 30 60 66 60 l29
0 -2 -162 c-3 -160 -3 -163 -25 -166 -13 -2 -23 -10 -23 -17 0 -11 18 -14 80
-14 61 0 80 3 80 14 0 7 -10 15 -22 17 -23 3 -23 6 -26 166 l-2 162 29 0 c36
0 57 -19 66 -60 4 -16 13 -30 21 -30 10 0 14 14 14 55 l0 55 -160 0 -160 0 0
-55z"/>
<path d="M2142 728 c-43 -21 -37 -88 8 -88 14 0 17 8 16 38 -1 35 1 37 32 40
44 4 62 -12 62 -58 l0 -38 -62 -11 c-70 -12 -108 -41 -108 -81 0 -61 82 -90
146 -51 30 18 31 18 42 0 8 -12 24 -19 41 -19 35 0 49 16 21 23 -18 5 -20 14
-20 96 0 100 -10 133 -47 150 -30 14 -101 13 -131 -1z m118 -160 c0 -56 -64
-100 -98 -66 -28 28 -4 79 43 91 48 11 55 8 55 -25z"/>
<path d="M2591 731 c-31 -8 -40 -31 -12 -31 20 0 21 -5 21 -104 0 -95 -2 -104
-20 -109 -11 -3 -20 -10 -20 -16 0 -7 26 -11 70 -11 44 0 70 4 70 11 0 6 -9
13 -20 16 -19 5 -20 14 -20 129 0 122 0 124 -22 123 -13 -1 -34 -4 -47 -8z"/>
<path d="M2795 728 c-49 -27 -60 -81 -22 -115 12 -11 45 -28 74 -37 46 -15 63
-30 63 -56 0 -19 -34 -40 -64 -40 -39 0 -61 21 -53 50 6 24 -6 34 -33 25 -20
-6 -27 -39 -12 -61 33 -50 175 -41 196 11 11 31 6 72 -11 87 -10 8 -42 24 -72
34 -64 22 -88 57 -56 80 43 32 104 7 90 -36 -6 -18 -3 -21 17 -18 33 4 37 50
6 72 -26 18 -93 21 -123 4z"/>
<path d="M2985 731 c-3 -6 7 -16 22 -23 21 -10 36 -37 75 -132 l48 -119 -22
-39 c-32 -57 -97 -66 -84 -12 5 19 2 24 -12 24 -22 0 -42 -19 -42 -40 0 -40
66 -64 110 -40 28 15 59 71 119 219 46 110 60 136 79 141 44 10 27 25 -31 26
-57 2 -87 -13 -48 -23 12 -3 21 -8 21 -12 0 -14 -55 -161 -61 -161 -3 0 -21
38 -38 85 -26 67 -39 88 -61 100 -33 17 -66 19 -75 6z"/>
</g>
</svg>
