<?xml version="1.0" encoding="UTF-8"?>
<svg id="Calque_1" xmlns="http://www.w3.org/2000/svg" viewBox="0 0 168.29 171.62">
  <defs>
    <style>
      .cls-1 {
        stroke-width: 3px;
      }

      .cls-1, .cls-2, .cls-3, .cls-4 {
        stroke: #481b1a;
        stroke-miterlimit: 10;
      }

      .cls-1, .cls-3, .cls-4 {
        fill: none;
      }

      .cls-2 {
        fill: #481b1a;
      }

      .cls-3 {
        stroke-width: 2px;
      }
    </style>
  </defs>
  <path class="cls-3" d="M35.23,154.96c1.17-9.54,1.34-12.77,3.51-24.02,1.67-8.52,3.34-15.5,4.51-20.61"/>
  <path class="cls-3" d="M105.52,32.16c-4.34,2.21-12.69,4.26-19.7,4.43-4.51,0-8.85.34-13.86-1.87-3.51-1.53-5.34-3.41-8.35-3.07-1.67.17-3.17,1.19-6.51,4.43-5.51,5.45-8.85,9.88-8.85,9.88-3.51,4.77-6.01,8.52-8.35,12.09-6.85,10.56-10.18,15.84-10.35,16.01-.33.51-6.01,10.05-10.85,20.61,0,0-1,2.04-1.84,4.26-6.34,14.82-6.85,17.88-7.85,22.48"/>
  <path class="cls-3" d="M135.07,151.56c-1.5-10.39-6.34-28.96-7.51-34.75"/>
  <path class="cls-3" d="M159.45,122.94c-5.51-16.86-10.02-24.02-16.03-36.11-7.35-14.65-11.02-21.97-17.87-30.83-8.68-11.41-15.86-25.04-20.2-23.68"/>
  <path class="cls-4" d="M98.67,34.54c.67-1.02,3.67-1.7,5.68-2.38"/>
  <polygon class="cls-2" points="47.25 97.39 41.91 118.68 35.06 118 47.25 97.39"/>
  <path class="cls-3" d="M150.77,101.31c-4.01,11.07-11.35,18.22-18.03,18.05-1.34,0-3.17-.34-5.18-1.7"/>
  <path class="cls-3" d="M39.73,118c-11.85,2.9-22.21-3.24-24.21-11.24-1.84-7.32,4.01-13.97,4.67-14.82"/>
  <path class="cls-4" d="M111.03,37.44c-3.84,2.73-11.02,6.81-20.87,7.83-3.51.34-10.69,1.19-19.03-1.87-5.18-1.87-11.52-5.28-13.86-7.15"/>
  <polygon class="cls-2" points="123.05 98.41 133.23 117.66 127.72 121.92 123.05 98.41"/>
  <ellipse class="cls-1" cx="84.15" cy="85.81" rx="82.65" ry="84.31"/>
</svg>