<?xml version="1.0" encoding="UTF-8"?>
<svg id="Calque_1" xmlns="http://www.w3.org/2000/svg" viewBox="0 0 162.5 162.5">
  <defs>
    <style>
      .cls-1 {
        stroke-width: 3px;
      }

      .cls-1, .cls-2, .cls-3, .cls-4 {
        stroke: #481b1a;
        stroke-miterlimit: 10;
      }

      .cls-1, .cls-3, .cls-4 {
        fill: none;
      }

      .cls-2 {
        fill: #481b1a;
      }

      .cls-3 {
        stroke-width: 2px;
      }
    </style>
  </defs>
  <path class="cls-3" d="M28.41,141.83c-.32,2.09-.32-1.13,9.02-37.86"/>
  <path class="cls-3" d="M130.07,144.08c-1.13-6.93-8.7-30.45-9.83-34.16"/>
  <path class="cls-3" d="M5.04,108.96c6.61-10.96,11.76-17.24,15.14-21.27,10.15-12.24,11.12-10.47,16.59-18.53,1.93-3.06,5.96-9.34,12.08-14.02,2.26-1.77,4.67-3.22,4.67-3.22,6.93-4.67,7.73-4.03,8.86-5.64,3.71-4.99-1.61-12.41,1.77-14.98.97-.81,1.77-.32,6.44,0,4.35.32,7.57,0,11.44-.16,8.06-.48,11.6-.81,11.6-.81,3.06-.32,4.67-.48,6.12.64,2.26,1.61,2.42,4.99,2.58,6.12.32,3.87-1.61,5.32-.32,7.73.48,1.13,1.13,1.13,3.22,2.74,2.58,1.93,4.03,3.87,5.64,5.8,2.26,2.58,2.26,3.38,4.83,7.57,2.58,4.03,3.06,4.03,6.28,8.54,2.9,4.19,2.74,4.35,6.44,10.15,4.35,6.77,4.67,6.44,7.89,11.6,3.54,5.64,5.8,10.31,6.28,11.44,1.45,2.9,1.13,2.58,4.35,9.67,1.45,3.06,2.58,5.8,4.35,9.34"/>
  <path class="cls-4" d="M55.31,50.64c2.09,2.58,5.96,6.28,11.76,8.54,4.67,1.77,8.7,1.93,11.28,2.09,3.87,0,6.61-.32,11.12-1.13,3.87-.64,6.12-1.29,8.86-2.9,3.87-2.26,6.28-5.32,7.41-7.25"/>
  <path class="cls-4" d="M44.68,56.44c2.26,2.58,5.8,5.8,10.47,9.18,3.38,2.42,6.77,4.67,11.6,6.28,5.16,1.61,9.34,1.61,17.72,1.45,5.64,0,9.99-.16,15.31-1.77,3.38-.97,6.44-2.26,9.02-3.38,3.71-1.61,6.61-3.06,8.86-4.19"/>
  <path class="cls-3" d="M40.33,63.85c2.26,3.87,6.44,9.18,13.05,13.05,4.83,2.9,9.02,4.03,11.6,4.67,3.87.97,8.22,1.13,16.92,1.45,10.15.32,13.53,0,15.14-.32,4.99-.64,8.7-1.77,9.51-2.09,1.13-.32,5.64-1.77,11.76-5.32,1.45-.81,3.38-1.93,5.48-3.54"/>
  <path class="cls-3" d="M129.58,145.86c1.93-4.03,4.03-5.32,5.8-5.64"/>
  <path class="cls-4" d="M70.62,32.27c.48,5.64.64,15.31-4.99,22.56-.64.81-1.29,1.45-1.93,2.26"/>
  <path class="cls-4" d="M75.45,32.11c0,6.77,1.29,15.47-4.03,27.55-.32.81.16,0-.32.81"/>
  <path class="cls-4" d="M81.89,31.63c-1.93,6.93-3.54,17.4-2.26,26.91.16,1.29.32,2.42.64,3.54"/>
  <path class="cls-4" d="M85.44,30.98c1.29,5.8-1.61,18.04-.64,27.39,0,.97.32,1.93.48,2.9"/>
  <path class="cls-4" d="M91.08,30.98c.64,7.57.32,19.49-.16,28.19,0,1.29-.81.32-.97,1.61"/>
  <path class="cls-4" d="M96.56,30.18c-1.13,7.73-1.13,16.27,1.29,25.13l.48,1.93"/>
  <circle class="cls-1" cx="81.25" cy="81.25" r="79.75"/>
  <polygon class="cls-2" points="36.94 103 38.72 98.49 38.23 103.32 36.94 103"/>
  <polygon class="cls-2" points="119.59 109.44 119.11 104.45 120.88 109.12 119.59 109.44"/>
</svg>