<?xml version="1.0" encoding="UTF-8"?>
<svg id="Calque_1" xmlns="http://www.w3.org/2000/svg" viewBox="0 0 154.6 154.6">
  <defs>
    <style>
      .cls-1 {
        stroke-width: 3px;
      }

      .cls-1, .cls-2, .cls-3, .cls-4 {
        stroke: #481b1a;
        stroke-miterlimit: 10;
      }

      .cls-1, .cls-3, .cls-4 {
        fill: none;
      }

      .cls-2 {
        fill: #481b1a;
      }

      .cls-3 {
        stroke-width: 2px;
      }
    </style>
  </defs>
  <path class="cls-3" d="M31.91,139.19c.76-6.42,1.22-9.47,2.45-16.35.61-3.51,1.07-6.11,1.38-7.34,1.38-7.03,2.9-13.3,4.13-18.64"/>
  <path class="cls-3" d="M58.35,26.72h0c-2.14-.92-4.58,2.9-5.96,3.97l-8.1,8.86h0c-3.21,4.28-5.5,7.64-7.64,10.85-6.27,9.48-9.32,14.21-9.47,14.37-.31.46-5.5,9.02-9.93,18.49,0,0-.92,1.83-1.68,3.82-5.81,13.3-6.72,17.88-7.79,21.85"/>
  <path class="cls-3" d="M122.38,136.29c-1.38-9.32-4.28-28.12-5.5-33.32"/>
  <path class="cls-3" d="M145.92,108.48c-5.04-15.13-9.02-21.55-14.52-32.4-6.72-13.14-10.09-19.71-16.35-27.81-7.95-10.24-14.37-24.3-18.49-21.24"/>
  <polygon class="cls-2" points="43.37 85.55 38.48 104.66 32.22 104.04 43.37 85.55"/>
  <path class="cls-3" d="M138.12,89.07c-3.67,9.93-10.39,16.35-16.5,16.2-1.22,0-2.9-.31-4.74-1.53"/>
  <path class="cls-3" d="M36.5,104.04c-10.85,2.6-20.33-2.9-22.16-10.09-1.68-6.57,3.67-12.53,4.28-13.3"/>
  <polygon class="cls-2" points="112.75 86.47 122.23 103.74 117.03 107.56 112.75 86.47"/>
  <path class="cls-3" d="M96.71,27.02l-19.1,17.42c-6.42-4.74-13.91-12.23-19.71-18.19"/>
  <path class="cls-4" d="M103.13,32.68l-24.76,20.94c-8.25-5.65-18.03-14.67-25.52-21.7"/>
  <circle class="cls-1" cx="77.3" cy="77.3" r="75.8"/>
</svg>