<?xml version="1.0" encoding="iso-8859-1"?>
<!-- Uploaded to: SVG Repo, www.svgrepo.com, Generator: SVG Repo Mixer Tools -->
<svg fill="#000000" height="800px" width="800px" version="1.1" id="Layer_1" xmlns="http://www.w3.org/2000/svg" xmlns:xlink="http://www.w3.org/1999/xlink" 
	 viewBox="0 0 512 512" xml:space="preserve">
<g>
	<g>
		<g>
			<path d="M495.617,329.673c-5.067-51.572-27.062-100.818-62.229-139.115c-32.036-34.889-74.04-59.688-119.685-70.98
				c5.584-9.73,8.795-20.987,8.795-32.987c0-36.666-29.831-66.496-66.497-66.496s-66.496,29.83-66.496,66.496
				c0,12,3.212,23.257,8.795,32.986c-45.69,11.301-87.725,36.133-119.776,71.073c-35.12,38.286-57.081,87.49-62.148,139.02
				C6.374,338.411,0,350.289,0,362.543v94.844c0,19.789,17.01,34.152,40.446,34.152c2.735,0,5.542-0.198,8.346-0.588
				c79.521-11.069,144.843-16.224,205.573-16.224l1.569,0.002c43.611,0.064,86.934,3.027,126.682,6.997
				c0.088,0.008,0.174,0.018,0.26,0.025c16.608,1.661,32.592,3.493,47.705,5.367c0.104,0.013,0.208,0.03,0.313,0.039
				c11.285,1.401,22.093,2.819,32.306,4.202c2.68,0.363,5.369,0.546,7.993,0.546c23.646,0,40.807-14.517,40.807-34.518v-94.844
				C512,350.49,505.568,338.548,495.617,329.673z M256.001,41.429c24.904,0,45.163,20.259,45.163,45.162
				c0,24.903-20.259,45.162-45.163,45.162c-24.903,0-45.162-20.259-45.162-45.162C210.839,61.688,231.099,41.429,256.001,41.429z
				 M213.838,137.971c0.781,0.642,1.573,1.267,2.381,1.873c-12.292,8.836-29.518,23.32-43.314,43.006
				c-3.38,4.825-2.21,11.478,2.615,14.859c1.862,1.305,3.998,1.932,6.112,1.932c3.36,0,6.669-1.585,8.744-4.546
				c16.468-23.497,39.182-38.944,48-44.396c5.617,1.546,11.522,2.388,17.623,2.388c15.99,0,30.679-5.676,42.161-15.115
				c90.286,17.535,159.393,89.275,174.293,179.074c-2.065-0.56-4.168-1.008-6.3-1.316c-73.706-10.645-141.86-15.817-208.355-15.817
				h-1.865c-64.571,0.098-133.297,5.407-210.102,16.232c-2.157,0.304-4.279,0.743-6.358,1.29
				C54.239,227.441,123.392,155.533,213.838,137.971z M471.191,470.571c-1.668,0-3.396-0.118-5.13-0.352
				c-6.726-0.911-13.711-1.838-20.911-2.765c2.673-14.432,4.026-35.792,4.113-64.674c0.018-5.892-4.743-10.682-10.635-10.7
				c-0.011,0-0.022,0-0.033,0c-5.876,0-10.648,4.754-10.666,10.636c-0.103,34.076-2.069,52.357-3.991,62.101
				c-8.807-1.056-17.876-2.09-27.17-3.08c2.1-13.54,2.094-29.003,2.09-35.147v-0.558c0-5.889-4.776-10.667-10.667-10.667
				c-5.89,0-10.667,4.778-10.667,10.667v0.569c0.008,15.968-0.885,26.307-2.003,33c-37.774-3.569-78.494-6.144-119.554-6.204
				l-1.601-0.002c-47.858,0-98.438,3.139-156.267,9.771c-1.756-13.182-2.643-32.408-2.634-57.435v-0.883
				c0-5.889-4.777-10.667-10.667-10.667s-10.667,4.778-10.667,10.667v0.876c-0.003,10.414-0.012,38.621,2.791,59.986
				c-10.125,1.268-20.47,2.638-31.068,4.112c-1.833,0.254-3.651,0.383-5.406,0.383c-9.513,0-19.111-3.963-19.111-12.818v-94.844
				c0-6.24,4.488-13.568,11.623-18.783c0.06-0.044,0.12-0.087,0.178-0.133c4.382-3.159,9.746-5.523,15.674-6.359
				c75.818-10.686,143.581-15.928,207.155-16.023h1.833c65.464,0,132.621,5.102,205.307,15.599
				c5.832,0.842,11.115,3.176,15.461,6.297c0.31,0.256,0.632,0.499,0.966,0.72c6.85,5.273,11.131,12.507,11.131,18.683v94.844h0.002
				C490.666,466.446,480.571,470.571,471.191,470.571z"/>
			<path d="M163.54,225.981c1.225,0.454,2.478,0.671,3.712,0.671c4.332,0,8.406-2.658,10.002-6.958l0.238-0.629
				c2.112-5.498-0.634-11.669-6.132-13.782c-5.499-2.112-11.671,0.634-13.784,6.132l-0.322,0.854
				C155.202,217.792,158.017,223.932,163.54,225.981z"/>
			<path d="M437.872,359.795c-5.888,0.175-10.519,5.089-10.344,10.98l0.022,0.734c0.172,5.779,4.911,10.348,10.657,10.348
				c0.108,0,0.215,0,0.324-0.004c5.888-0.175,10.519-5.091,10.344-10.98l-0.022-0.734
				C448.677,364.252,443.804,359.605,437.872,359.795z"/>
		</g>
	</g>
</g>
</svg>